<?xml version="1.0" encoding="UTF-8" standalone="no"?>
<!-- Created with Inkscape (http://www.inkscape.org/) -->

<svg
   version="1.1"
   id="svg328"
   width="216.58537"
   height="66.341461"
   viewBox="0 0 216.58537 66.341461"
   sodipodi:docname="logo.svg"
   inkscape:version="1.2.2 (b0a8486541, 2022-12-01)"
   xmlns:inkscape="http://www.inkscape.org/namespaces/inkscape"
   xmlns:sodipodi="http://sodipodi.sourceforge.net/DTD/sodipodi-0.dtd"
   xmlns="http://www.w3.org/2000/svg"
   xmlns:svg="http://www.w3.org/2000/svg">
  <defs
     id="defs332" />
  <sodipodi:namedview
     id="namedview330"
     pagecolor="#ffffff"
     bordercolor="#000000"
     borderopacity="0.25"
     inkscape:showpageshadow="2"
     inkscape:pageopacity="0.0"
     inkscape:pagecheckerboard="0"
     inkscape:deskcolor="#d1d1d1"
     showgrid="false"
     inkscape:zoom="3.5573531"
     inkscape:cx="108.22654"
     inkscape:cy="33.311285"
     inkscape:window-width="1920"
     inkscape:window-height="1043"
     inkscape:window-x="0"
     inkscape:window-y="0"
     inkscape:window-maximized="1"
     inkscape:current-layer="g334" />
  <g
     inkscape:groupmode="layer"
     inkscape:label="Image"
     id="g334">
    <g
       id="g1"
       transform="matrix(2.4008082,0,0,2.4008082,-24.070122,-89.546281)">
      <path
         inkscape:connector-curvature="0"
         style="fill:#c6bd76;fill-opacity:1;fill-rule:evenodd;stroke:none;stroke-width:0.207187;stroke-miterlimit:4;stroke-dasharray:none"
         d="m 39.564712,38.686664 c -0.05089,0.07404 -0.101259,0.152001 -0.241178,0.271934 -0.361797,0.310099 -1.094103,0.758221 -2.550179,1.269828 -0.939063,0.329948 -1.842024,0.843815 -2.511327,1.374231 -0.334656,0.265206 -0.611098,0.5355 -0.804471,0.791518 -0.193369,0.256021 -0.309368,0.499561 -0.29783,0.728393 0.03615,0.715145 0.38248,1.34316 0.945287,1.902719 0.562808,0.559557 1.342652,1.05563 2.266913,1.523958 1.456634,0.738079 4.124689,1.489217 6.607318,2.095339 2.005285,0.489567 3.405681,0.765099 4.410005,0.967141 -0.886589,-0.0206 -1.784085,-0.0419 -2.700714,-0.06232 -1.005914,-0.02295 -2.02159,-0.04217 -3.04386,-0.04937 -0.252017,-0.0019 -0.501351,2.7e-4 -0.751861,8.15e-4 -0.715529,-5.6e-4 -1.426514,0.0044 -2.127715,0.02025 -1.066174,-0.04551 -2.147422,-0.138081 -3.168501,-0.298636 h -8.14e-4 c -2.399672,-0.917518 -3.75705,-1.982102 -4.790386,-3.839433 -0.284871,-0.511986 -0.358438,-0.988694 -0.275983,-1.443833 0.08246,-0.455134 0.324518,-0.891181 0.6855,-1.304629 0.721951,-0.8269 1.917589,-1.555733 3.191163,-2.15199 2.373662,-1.111299 4.810671,-1.711671 5.158648,-1.79591 z m -5.229041,1.280353 c -0.08862,0.07517 -0.04305,0.06212 -0.190185,0.16429 -0.47623,0.330711 -1.281749,0.781542 -2.591456,1.250404 -0.583719,0.208965 -1.040867,0.781724 -1.388801,1.382324 -0.347936,0.600602 -0.584438,1.235551 -0.698447,1.591133 -0.246893,0.77002 -0.08948,1.598446 0.439462,2.351892 0.528945,0.753455 1.425704,1.436492 2.669958,1.944808 0.82925,0.338776 1.808815,0.55534 2.841537,0.7122 0.233627,0.09293 0.480461,0.183501 0.734057,0.273556 -1.092187,0.07367 -2.137981,0.183363 -3.115087,0.341534 -1.082144,-0.252548 -2.098671,-0.557146 -2.973459,-0.904015 -0.927928,-0.57953 -1.65466,-1.268342 -2.135798,-2.105053 -0.593849,-1.032707 -0.466209,-1.971012 0.06232,-2.837485 0.528521,-0.866471 1.469674,-1.647841 2.491093,-2.297671 1.65629,-1.053743 3.20981,-1.637133 3.854808,-1.867917 z m -5.460503,2.069441 c -0.383132,0.326846 -0.820796,0.720855 -1.210751,1.236644 -0.443855,0.587086 -0.81148,1.280512 -0.904013,2.039493 -0.09253,0.758986 0.09654,1.581551 0.746195,2.401263 0.411555,0.519279 1.124451,0.963407 1.998225,1.353194 -0.116607,-0.04305 -0.275759,-0.06829 -0.388481,-0.112498 -8.14e-4,-2.7e-4 -0.0021,-2.7e-4 -0.0035,-8.14e-4 -0.266356,-0.106316 -0.519148,-0.217388 -0.754294,-0.332634 -0.35262,-0.172859 -0.667406,-0.355175 -0.934766,-0.546294 -0.178126,-0.127292 -0.334934,-0.258753 -0.4686,-0.393332 -0.06686,-0.06736 -0.128164,-0.135693 -0.182901,-0.204758 -0.334452,-0.422003 -0.821677,-0.767023 -1.408226,-1.055357 -0.06286,-1.436287 1.020722,-2.655947 2.15685,-3.520558 0.488603,-0.371836 0.9477,-0.63692 1.353996,-0.864359 z m -12.706381,3.206536 c 1.847564,0.0053 4.076313,0.10432 6.035932,0.451603 1.161105,0.205773 2.219681,0.504908 3.052775,0.911299 0.103272,0.05044 0.201715,0.10323 0.297828,0.157008 0.05475,0.03072 0.108027,0.062 0.160246,0.09388 0.083,0.05042 0.164003,0.101294 0.240367,0.154582 0.06643,0.04668 0.127503,0.09591 0.188576,0.144867 0.06339,0.05044 0.12965,0.09925 0.186949,0.152157 0.0075,0.0069 0.0145,0.01407 0.02184,0.02103 0.09395,0.08854 0.180801,0.180401 0.256558,0.275977 0.479103,0.604521 1.344197,1.109028 2.426351,1.540955 0.554463,0.221273 1.16738,0.422873 1.815316,0.605375 0.320261,0.15835 0.66156,0.304535 1.014888,0.444316 -1.01954,0.223135 -1.940483,0.513551 -2.729849,0.889448 -0.304206,-0.117071 -0.591841,-0.244393 -0.86274,-0.381191 -0.0035,-0.0019 -0.0069,-0.004 -0.01053,-0.0057 -0.201322,-0.1027 -0.394601,-0.208777 -0.572999,-0.32292 -0.159592,-0.102101 -0.307033,-0.202215 -0.450793,-0.301875 l -0.02427,-0.01701 h -0.0019 C 26.069683,49.260723 25.437962,48.567477 24.848489,47.971981 24.181566,47.298242 23.559178,46.747813 22.336352,46.359 20.22007,45.686119 17.728537,45.387975 15.751691,45.255893 c 0.223975,-0.0021 0.178741,-0.01385 0.416801,-0.01296 z m -0.453225,3.972972 c 2.094459,-0.02449 4.667186,0.107047 7.537233,0.590806 1.546203,0.260624 2.806456,0.390408 3.89042,0.451601 0.138345,0.09573 0.28041,0.192183 0.435418,0.291357 0.05286,0.03382 0.110338,0.06457 0.165102,0.09712 -2.409917,-0.160561 -4.510724,-0.32139 -6.23018,-0.594857 -2.7e-4,-6.7e-5 -0.0014,6.8e-5 -0.0019,0 -1.78827,-0.663267 -4.228335,-0.802341 -6.42117,-0.793942 0.248316,-0.0076 0.360865,-0.03898 0.624796,-0.04208 z m 20.645847,0.276788 c 0.271139,0.03068 0.543933,0.05873 0.818226,0.08336 -0.169373,0.008 -0.336659,0.01723 -0.50421,0.0267 -0.109736,-0.03646 -0.206859,-0.07341 -0.314016,-0.110065 z m 5.282457,0.215279 c 0.668097,0.0047 1.335635,0.01984 2.003884,0.03236 0.418728,0.0079 0.839471,0.01158 1.255259,0.02103 1.10744,0.0253 2.195037,0.05224 3.253486,0.07446 0.09659,0.0021 0.200204,0.0053 0.296206,0.0073 v -0.0031 c 0.831674,0.01644 1.656264,0.03182 2.431213,0.03319 1.832764,0.0031 2.661554,0.0035 3.128033,0.0186 -0.437216,0.113621 -1.075681,0.280728 -1.596797,0.558433 -0.269009,0.143359 -0.505994,0.313599 -0.660408,0.527676 -0.154408,0.214081 -0.21942,0.479524 -0.135154,0.76643 0.04423,0.150575 0.02414,0.214599 -0.01458,0.253318 -0.03868,0.03872 -0.133064,0.06873 -0.279217,0.06475 -0.270154,-0.0077 -0.688374,-0.129239 -1.121725,-0.28893 -0.192879,-0.0715 -0.387397,-0.150629 -0.577855,-0.232275 -0.02222,-0.0095 -0.04514,-0.01798 -0.06717,-0.02754 -0.222382,-0.09653 -0.437383,-0.194704 -0.628843,-0.285688 v -0.09226 l -0.101167,0.04613 C 48.452791,51.000279 48.1618,50.848335 48.160532,50.847666 l -0.0019,-8.14e-4 -0.01944,-0.0097 -0.02427,-0.0019 c 0,0 -0.325212,-0.01045 -0.832794,-0.02103 -0.75851,-0.01833 -1.961813,-0.03191 -3.714792,0.01053 -0.500727,0.01207 -1.012926,0.02727 -1.560377,0.05099 -0.133175,0.0058 -0.267659,0.01366 -0.403043,0.02025 -0.55264,0.02678 -1.119538,0.06081 -1.69958,0.102781 -0.126315,0.0092 -0.248343,0.01595 -0.375525,0.02589 -0.126744,0.0099 -0.253739,0.02165 -0.381196,0.03236 -0.324006,0.02732 -0.648414,0.05763 -0.975226,0.09065 -0.128402,0.01296 -0.255875,0.02656 -0.384436,0.04044 -0.309932,0.03351 -0.618924,0.07003 -0.928289,0.109264 -0.143294,0.01817 -0.286104,0.03478 -0.428945,0.05422 -0.42088,0.05734 -0.839572,0.119298 -1.252831,0.188571 -0.01153,0.0019 -0.0233,0.0035 -0.03483,0.0057 0,0 -8.15e-4,0 -8.15e-4,0 -0.327523,0.05522 -0.654873,0.11483 -0.980901,0.17805 -0.04861,0.0095 -0.09635,0.0203 -0.14487,0.02992 -0.291571,0.05771 -0.580928,0.118753 -0.867596,0.182907 -0.0048,8.14e-4 -0.0097,0.0021 -0.01458,0.0031 -0.01028,0.0021 -0.02041,0.0049 -0.03076,0.0073 -0.319124,0.07189 -0.632401,0.148307 -0.941243,0.228224 -0.188573,0.0488 -0.378191,0.09631 -0.561673,0.14811 l -0.0097,0.0027 -0.0089,0.0048 c -0.01004,0.0049 -0.01914,0.0104 -0.02913,0.01539 -0.107152,0.03063 -0.21857,0.05901 -0.323729,0.09064 -0.184633,0.05537 -0.365696,0.112255 -0.543057,0.170771 -0.07912,0.02624 -0.165305,0.04917 -0.2428,0.07608 -0.04471,0.01552 -0.08291,0.03364 -0.127063,0.04937 -0.273326,0.09686 -0.535773,0.197194 -0.785041,0.302686 -0.360784,0.153085 -0.695057,0.314181 -0.993852,0.486405 -0.03165,0.01825 -0.06057,0.03739 -0.09146,0.05584 -0.117659,0.07039 -0.23007,0.142324 -0.335865,0.216088 -0.03647,0.0254 -0.07185,0.05107 -0.106831,0.07689 -0.09576,0.07072 -0.184532,0.143844 -0.268699,0.217712 -0.03059,0.02683 -0.06326,0.05286 -0.09226,0.08012 -0.105432,0.09918 -0.203314,0.20015 -0.286503,0.305115 v 8.14e-4 c -0.03258,0.0411 -0.07413,0.07835 -0.110063,0.118162 -0.04934,0.05465 -0.0951,0.110427 -0.15054,0.162675 -0.04203,0.03969 -0.0914,0.07658 -0.136771,0.114922 -0.06022,0.05074 -0.117827,0.102966 -0.183717,0.151344 -0.03717,0.02741 -0.07925,0.05267 -0.118164,0.07931 -0.08508,0.05806 -0.170841,0.115386 -0.263839,0.169959 -0.02727,0.01604 -0.05707,0.03121 -0.08498,0.04694 -0.108057,0.06079 -0.218546,0.120001 -0.335866,0.176433 -0.544047,0.262109 -1.182301,0.478833 -1.8833,0.652315 -1.46002,0.361329 -3.17724,0.54524 -4.816282,0.629653 -0.941329,0.04849 -1.671676,0.02127 -2.498382,0.0186 1.933177,-0.140643 4.282194,-0.429894 6.307867,-1.073972 1.222832,-0.38881 1.845142,-0.939174 2.512146,-1.612987 0.5889,-0.594929 1.219555,-1.288098 2.360793,-2.083196 h 0.0031 l 0.02427,-0.01701 c 0.144236,-0.100028 0.292176,-0.200969 0.452412,-0.303494 h 8.15e-4 c 0.171503,-0.109724 0.356991,-0.21253 0.54872,-0.311591 0.06529,-0.03372 0.13166,-0.06708 0.199094,-0.09954 0.0021,-8.14e-4 0.0045,-0.0014 0.0065,-0.0027 0.921796,-0.443707 2.045646,-0.767413 3.302846,-1.004373 0.270853,-0.05086 0.551428,-0.09487 0.834414,-0.137584 0.08958,-0.01361 0.178779,-0.02763 0.269503,-0.04044 0.306924,-0.04313 0.618171,-0.08341 0.937201,-0.118161 0.711349,-0.07748 1.451086,-0.13516 2.211066,-0.177243 0.261199,-0.01466 0.526353,-0.02573 0.791523,-0.03722 0.329111,-0.01358 0.659164,-0.02687 0.993846,-0.03562 0.89252,-0.02573 1.80236,-0.03478 2.720136,-0.0324 0.131458,2.7e-4 0.26166,-8.14e-4 0.393332,0 z m -9.520884,0.365006 c 0.05296,0.01229 0.106213,0.02435 0.159439,0.03642 -0.01533,0.0031 -0.03085,0.0059 -0.04614,0.0089 -0.03872,-0.01463 -0.07466,-0.03068 -0.113302,-0.04532 z m 13.422633,0.931531 c 0.771461,-8.14e-4 1.404608,0.0081 1.846062,0.01782 0.0019,3.5e-5 0.0049,-3.3e-5 0.0065,0 0.432305,0.0096 0.680724,0.01992 0.687922,0.02025 0.0062,0.0031 0.148298,0.07388 0.220948,0.110065 0.07475,0.03876 0.149589,0.07645 0.286501,0.144061 -1.154483,0.564613 -1.647581,1.176491 -1.731951,1.289254 -0.004,0.0052 -0.02127,0.0229 -0.02346,0.02589 -5.6e-4,-3.5e-5 -0.01798,-0.0021 -0.0186,-0.0027 -0.02957,-0.0035 -0.31315,-0.03226 -0.71139,-0.0696 -0.18778,-0.01809 -0.266026,-0.02503 -0.534963,-0.04694 -0.135791,-0.01112 -0.262422,-0.02019 -0.416803,-0.03156 -0.305375,-0.02254 -0.635463,-0.0427 -1.00356,-0.06313 -0.185277,-0.01026 -0.353052,-0.01936 -0.551963,-0.02833 -0.461163,-0.0209 -0.951957,-0.03465 -1.469726,-0.04371 -0.103893,-0.0019 -0.190476,-0.0077 -0.296214,-0.0089 -0.02427,-2.54e-4 -0.05009,2.53e-4 -0.07446,0 -0.100546,-8.14e-4 -0.202369,2.7e-4 -0.304306,0 -0.44318,-0.0019 -0.896146,0.0035 -1.357238,0.01617 -0.109053,0.0031 -0.214866,0.004 -0.324538,0.0081 -0.134147,0.0047 -0.268294,0.01163 -0.40304,0.01782 -0.197663,0.0092 -0.394965,0.01976 -0.593236,0.03236 -0.168034,0.01055 -0.33481,0.02241 -0.502586,0.03562 -0.16473,0.01304 -0.328069,0.02877 -0.49207,0.04451 -0.180255,0.01725 -0.359593,0.03434 -0.538202,0.05503 -0.168965,0.01963 -0.334834,0.04344 -0.501774,0.06636 -1.250303,0.171673 -2.437369,0.433339 -3.425063,0.836841 -1.244257,0.508321 -2.141823,1.191359 -2.670766,1.944802 -0.528944,0.753452 -0.685548,1.581878 -0.438654,2.351899 0.114001,0.355554 0.349904,0.989713 0.69764,1.590319 0.347731,0.600604 0.805067,1.173355 1.388796,1.382322 1.309709,0.468865 2.115832,0.920501 2.592262,1.251215 0.146272,0.101523 0.100125,0.0878 0.188574,0.162681 -0.64616,-0.23126 -2.19797,-0.814058 -3.853189,-1.867113 -1.021413,-0.649839 -1.96258,-1.430387 -2.491101,-2.296861 -0.528521,-0.866471 -0.656164,-1.804787 -0.06232,-2.837491 0.479837,-0.83443 1.200975,-1.523207 2.124478,-2.102621 l 0.0035,-0.0019 0.0081,-0.004 c 0.13369,-0.0836 0.27085,-0.165545 0.411943,-0.245224 0.0019,-8.15e-4 0.0031,-0.0021 0.0048,-0.0031 0.144211,-0.08017 0.291636,-0.158134 0.444319,-0.233896 0.172235,-0.04855 0.350762,-0.0941 0.527681,-0.140014 0.10604,-0.0275 0.208938,-0.0568 0.316444,-0.08336 0.286574,-0.07085 0.577896,-0.138215 0.872448,-0.202332 0,0 8.14e-4,0 8.14e-4,0 0.589635,-0.128337 1.19201,-0.24338 1.793458,-0.344771 0,0 8.15e-4,0 8.15e-4,0 0.115173,-0.01941 0.233683,-0.03417 0.349623,-0.05261 0.347852,-0.05534 0.696117,-0.11073 1.048886,-0.157819 8.14e-4,-1.02e-4 0.0019,10e-5 0.0027,0 0.410653,-0.05479 0.82331,-0.101958 1.235837,-0.146487 0.06106,-0.0066 0.121877,-0.01547 0.182912,-0.02184 0.469617,-0.04908 0.938612,-0.09216 1.402558,-0.129493 0.0036,-2.53e-4 0.0075,-2.69e-4 0.01131,-8.14e-4 0.462148,-0.03708 0.918827,-0.06858 1.367754,-0.0955 0.0055,-2.7e-4 0.01069,-2.7e-4 0.01622,-8.14e-4 0.446865,-0.0267 0.884864,-0.04915 1.311105,-0.06717 0.0072,-2.54e-4 0.0138,-5.6e-4 0.02103,-8.15e-4 0.424034,-0.01782 0.834849,-0.03142 1.230983,-0.04208 8.14e-4,-2.7e-5 0.0019,2.2e-5 0.0027,0 0.803516,-0.02152 1.542195,-0.02988 2.184366,-0.03076 z m 3.287473,0.407897 c 0.341651,0.162754 0.75485,0.350595 1.175943,0.512304 l -0.336675,0.216086 c -0.01026,0.0019 -1.647049,0.361721 -2.64568,0.56977 0.01479,-0.02011 0.06017,-0.07455 0.114115,-0.135159 0.02731,-0.02957 0.06695,-0.06694 0.101975,-0.101974 0.06089,-0.06192 0.126741,-0.126806 0.218516,-0.205568 0.03262,-0.02785 0.0674,-0.0566 0.103591,-0.08579 0.04173,-0.03359 0.08387,-0.06742 0.131118,-0.102787 0.04022,-0.03028 0.08636,-0.06196 0.130297,-0.09307 0.06364,-0.04468 0.126612,-0.08886 0.199092,-0.135154 0.0182,-0.01175 0.03952,-0.02384 0.05827,-0.03562 0.212653,-0.132506 0.458787,-0.268864 0.749443,-0.403046 z m -20.348012,0.02268 c -0.05314,0.03196 -0.109518,0.06172 -0.161058,0.09469 -0.155707,0.09962 -0.299357,0.19695 -0.439462,0.293785 -1.083791,0.06121 -2.344563,0.19104 -3.890418,0.451602 -3.032905,0.511235 -5.576392,0.580251 -7.730663,0.536583 2.081166,-0.01517 4.316761,-0.161277 5.989809,-0.781807 2.7e-4,-6.8e-5 0.0014,6.7e-5 0.0019,0 1.719456,-0.273461 3.820311,-0.434268 6.230174,-0.594851 z m 13.107801,1.090964 c 0.139292,8.14e-4 0.276892,0.0014 0.412756,0.0031 0.619699,0.0093 1.217141,0.02833 1.757851,0.05422 0.0419,0.0021 0.081,0.0044 0.122201,0.0065 0.3639,0.01825 0.664088,0.03947 0.975243,0.0607 0.930759,0.06606 1.612444,0.13565 1.743281,0.150534 -0.841611,0.178471 -0.928997,0.177958 -2.013597,0.433798 -2.74844,0.648313 -5.884612,1.490629 -7.477336,2.297671 -0.924275,0.468333 -1.704921,0.964393 -2.267729,1.523955 -0.562807,0.559555 -0.908324,1.188379 -0.944484,1.903527 -0.01153,0.228851 0.104385,0.472377 0.297834,0.728393 0.193447,0.256015 0.47052,0.524692 0.805276,0.7899 0.669512,0.530409 1.573082,1.044283 2.512143,1.374234 1.456083,0.511607 2.187575,0.959722 2.549369,1.269829 0.139913,0.119927 0.190287,0.197895 0.24118,0.27193 -0.347841,-0.0842 -2.784108,-0.683763 -5.157822,-1.795078 -1.273571,-0.596255 -2.470831,-1.3259 -3.192783,-2.152801 -0.36097,-0.41345 -0.602228,-0.848681 -0.684686,-1.303818 -0.08246,-0.455143 -0.0089,-0.932658 0.27598,-1.444649 1.028988,-1.849518 2.379165,-2.907993 4.75963,-3.82486 0.819726,-0.131161 1.675629,-0.222114 2.534804,-0.27679 0.463188,-0.02948 0.925114,-0.04638 1.382325,-0.05827 0.151187,-0.0036 0.298801,-0.0052 0.447553,-0.0073 0.311295,-0.0047 0.619345,-0.0067 0.921011,-0.0048 z m -11.304629,0.497733 c -0.879859,0.389563 -1.625911,0.821628 -2.039496,1.343476 -0.649661,0.819713 -0.83865,1.643094 -0.746197,2.402077 0.09246,0.758981 0.460258,1.4516 0.904015,2.038686 0.389428,0.51522 0.826347,0.909111 1.209126,1.235835 -0.405529,-0.227126 -0.864062,-0.49099 -1.351569,-0.861927 -1.137294,-0.865361 -2.222402,-2.086237 -2.157655,-3.524605 0.58737,-0.28805 1.076917,-0.632428 1.411458,-1.05455 0.483934,-0.610604 1.543015,-1.122619 2.770318,-1.578992 z"
         id="path3749-4-9" />
      <path
         style="fill:#c6bd76;fill-opacity:1;fill-rule:evenodd;stroke:none;stroke-width:0.207187;stroke-miterlimit:4;stroke-dasharray:none"
         d="m 70.452988,38.686607 c 0.05089,0.07404 0.101266,0.152001 0.241178,0.271931 0.361794,0.310102 1.094104,0.758222 2.550183,1.269832 0.939061,0.329947 1.842021,0.843815 2.511329,1.374231 0.334653,0.265202 0.611089,0.535499 0.804466,0.791517 0.193373,0.256019 0.309367,0.499561 0.297835,0.728393 -0.03618,0.715143 -0.382485,1.343157 -0.945295,1.902719 -0.562805,0.559557 -1.342646,1.055625 -2.266913,1.523952 -1.456629,0.73808 -4.124684,1.489218 -6.607321,2.09534 -2.005281,0.489569 -3.405677,0.765104 -4.41,0.967144 0.886594,-0.0206 1.784083,-0.04186 2.700717,-0.06232 1.00591,-0.02295 2.021586,-0.04217 3.043863,-0.04937 0.252013,-0.0019 0.501345,2.71e-4 0.751856,8.15e-4 0.715532,-2.7e-4 1.426513,0.0044 2.127714,0.02025 1.066174,-0.04552 2.147422,-0.138086 3.168503,-0.298641 h 0.001 c 2.399675,-0.917518 3.757054,-1.982102 4.790384,-3.839437 0.284873,-0.511982 0.35844,-0.988692 0.275982,-1.443832 -0.08246,-0.455134 -0.324516,-0.891178 -0.685496,-1.304629 -0.721968,-0.826906 -1.917602,-1.555738 -3.19118,-2.151996 -2.373635,-1.111277 -4.810648,-1.711648 -5.15863,-1.795888 z m 5.229036,1.280351 c 0.08863,0.07516 0.04305,0.06212 0.190192,0.164292 0.47623,0.330711 1.281751,0.781542 2.59146,1.250404 0.583716,0.208965 1.040862,0.781724 1.388798,1.382325 0.347936,0.600601 0.584438,1.235548 0.698447,1.591127 0.246894,0.77002 0.08948,1.598449 -0.439467,2.351898 -0.528942,0.753454 -1.425698,1.436486 -2.669958,1.944802 -0.82924,0.338773 -1.80881,0.55534 -2.841534,0.712205 -0.233627,0.09293 -0.480459,0.183501 -0.734055,0.273553 1.092189,0.07367 2.137982,0.183364 3.115089,0.341535 1.082144,-0.252546 2.09867,-0.557149 2.973457,-0.904018 0.927926,-0.57953 1.654658,-1.268337 2.135799,-2.105048 0.593853,-1.032707 0.466205,-1.971017 -0.06232,-2.83749 -0.52852,-0.866471 -1.469677,-1.647838 -2.491099,-2.297668 -1.656282,-1.053746 -3.209801,-1.637136 -3.854809,-1.867917 z m 5.460511,2.069438 c 0.383137,0.326846 0.820797,0.720855 1.210748,1.236647 0.443859,0.587083 0.811475,1.280512 0.904013,2.039496 0.09253,0.75898 -0.09653,1.581551 -0.746197,2.401262 -0.411549,0.519277 -1.124449,0.963404 -1.998218,1.353189 0.116605,-0.04305 0.275753,-0.06829 0.388475,-0.112493 10e-4,-2.7e-4 0.002,-2.7e-4 0.0031,-8.14e-4 0.266359,-0.106312 0.519151,-0.217387 0.754289,-0.332634 0.352628,-0.172858 0.667414,-0.355171 0.934771,-0.546293 0.178131,-0.12729 0.334938,-0.25875 0.468602,-0.393329 0.06685,-0.06736 0.128166,-0.135694 0.182904,-0.204761 0.33445,-0.421998 0.821673,-0.767021 1.408218,-1.055355 0.06286,-1.436286 -1.02072,-2.655947 -2.156843,-3.52056 -0.488607,-0.371834 -0.947713,-0.636918 -1.353999,-0.864356 z m 12.706381,3.206541 c -1.847563,0.0053 -4.076319,0.10432 -6.035936,0.451603 -1.1611,0.205768 -2.219682,0.504909 -3.05277,0.911299 -0.103276,0.05044 -0.201713,0.103225 -0.297834,0.157006 -0.05475,0.03076 -0.108025,0.06199 -0.160248,0.09388 -0.08299,0.05042 -0.163994,0.101299 -0.24036,0.154587 -0.06643,0.04668 -0.127505,0.09591 -0.188573,0.144865 -0.06339,0.05044 -0.129653,0.09925 -0.18695,0.152154 -0.0075,0.0069 -0.0145,0.01407 -0.02183,0.02103 -0.09395,0.08854 -0.180803,0.180401 -0.256558,0.275977 -0.479106,0.604521 -1.344198,1.109026 -2.426357,1.540955 -0.554459,0.221273 -1.16738,0.422873 -1.815314,0.605375 -0.320262,0.158349 -0.661557,0.304535 -1.014887,0.444319 1.019539,0.223132 1.940478,0.513548 2.729846,0.889439 0.304211,-0.117065 0.591842,-0.244393 0.862741,-0.381185 0.0036,-0.0019 0.0069,-0.004 0.01053,-0.0057 0.201321,-0.102697 0.394607,-0.208778 0.573008,-0.322917 0.159587,-0.102101 0.307031,-0.202215 0.45079,-0.301879 l 0.02427,-0.01701 h 0.002 c 1.143654,-0.796076 1.775374,-1.489318 2.364846,-2.084814 0.66692,-0.673739 1.289312,-1.224168 2.512137,-1.612981 2.116278,-0.672886 4.60781,-0.971028 6.584664,-1.10311 -0.223983,-0.0021 -0.178741,-0.01382 -0.416805,-0.01296 z m 0.453217,3.97297 c -2.094451,-0.02449 -4.667183,0.107044 -7.537226,0.590806 -1.546202,0.260624 -2.806456,0.390408 -3.890417,0.451603 -0.138345,0.09573 -0.28041,0.19218 -0.435416,0.291358 -0.05287,0.03381 -0.11034,0.06456 -0.165108,0.09712 2.409914,-0.160556 4.510722,-0.321387 6.230173,-0.594851 2.7e-4,-6.8e-5 0.0015,6.8e-5 0.002,0 1.788271,-0.663268 4.228337,-0.802347 6.42117,-0.793948 -0.248309,-0.0076 -0.360863,-0.03898 -0.624794,-0.04208 z m -20.645838,0.27679 c -0.271148,0.03068 -0.543934,0.05873 -0.818227,0.08336 0.169372,0.008 0.336659,0.01725 0.504204,0.0267 0.109745,-0.03651 0.206864,-0.07341 0.314023,-0.110068 z m -5.282461,0.215279 c -0.668096,0.0046 -1.335638,0.01984 -2.003882,0.03236 -0.418729,0.0079 -0.839474,0.01153 -1.255257,0.02103 -1.107441,0.02527 -2.195046,0.05223 -3.253485,0.07446 -0.09659,0.0021 -0.200202,0.0053 -0.296211,0.0073 v -0.0031 c -0.831673,0.01644 -1.656262,0.03183 -2.431212,0.03319 -1.832763,0.0031 -2.661553,0.0035 -3.128032,0.0186 0.437213,0.113621 1.075675,0.280729 1.596794,0.558434 0.269012,0.143359 0.505991,0.313598 0.660405,0.527676 0.154408,0.214084 0.219426,0.479524 0.13516,0.766429 -0.04423,0.150578 -0.02408,0.2146 0.01458,0.253319 0.03868,0.03872 0.133064,0.06873 0.279216,0.06475 0.270157,-0.0077 0.688378,-0.129239 1.121724,-0.288931 0.192878,-0.0715 0.387396,-0.150626 0.577852,-0.232274 0.02219,-0.0095 0.04514,-0.01798 0.06718,-0.02754 0.22238,-0.09653 0.437381,-0.194707 0.62884,-0.28569 v -0.09226 l 0.10117,0.04613 c 0.376236,-0.181632 0.667231,-0.333581 0.668498,-0.334251 l 0.002,-8.14e-4 0.01939,-0.0097 0.02428,-0.0019 c 0,0 0.325218,-0.01042 0.832797,-0.02103 0.758513,-0.01833 1.961811,-0.03191 3.714794,0.01053 0.500724,0.01207 1.012929,0.02727 1.56038,0.05099 0.133169,0.0058 0.267662,0.01366 0.40304,0.02025 0.552636,0.02678 1.119538,0.06081 1.699579,0.102781 0.126314,0.0091 0.248344,0.01595 0.375529,0.02589 0.126741,0.0099 0.253733,0.02162 0.381187,0.03236 0.324008,0.02731 0.648417,0.05762 0.975234,0.09064 0.128396,0.01296 0.255871,0.02656 0.384435,0.04049 0.309936,0.0335 0.618921,0.07003 0.928287,0.109258 0.143297,0.01817 0.28611,0.03478 0.428943,0.05422 0.420883,0.05734 0.839576,0.119304 1.252835,0.188574 0.0115,0.0019 0.02331,0.0036 0.03476,0.0057 0,0 10e-4,0 10e-4,0 0.327529,0.05521 0.654875,0.114831 0.980903,0.178055 0.0486,0.0095 0.09636,0.02027 0.144869,0.02992 0.291575,0.05771 0.580932,0.118745 0.867596,0.182901 0.0046,8.14e-4 0.0098,0.0021 0.01456,0.0031 0.01033,0.0021 0.02041,0.0049 0.03079,0.0073 0.319122,0.07189 0.632402,0.14831 0.941244,0.228227 0.188569,0.0488 0.378191,0.09631 0.56167,0.14811 l 0.0097,0.0021 0.0089,0.0048 c 0.01002,0.0049 0.01913,0.01039 0.02911,0.01539 0.107149,0.03063 0.218568,0.05901 0.323728,0.09065 0.184634,0.05537 0.365692,0.112249 0.543059,0.170766 0.07912,0.02627 0.165302,0.04917 0.242797,0.07608 0.04473,0.01552 0.08291,0.03364 0.127063,0.04937 0.273326,0.09686 0.535771,0.197194 0.785042,0.302692 0.360786,0.15308 0.695058,0.314175 0.993849,0.486399 0.03165,0.01825 0.06057,0.03739 0.09145,0.05584 0.117668,0.0704 0.230079,0.142324 0.33587,0.216089 0.03649,0.0254 0.07185,0.05107 0.106834,0.07688 0.09575,0.07072 0.184527,0.14385 0.268695,0.217712 0.03059,0.02683 0.06326,0.05286 0.09226,0.08012 0.105435,0.09918 0.203312,0.200153 0.286507,0.305118 v 8.14e-4 c 0.03257,0.0411 0.07413,0.07835 0.110065,0.118162 0.04931,0.05465 0.0951,0.110427 0.150533,0.162675 0.04204,0.03969 0.09141,0.07657 0.136773,0.114925 0.06022,0.05073 0.117831,0.102962 0.183719,0.151339 0.03715,0.0274 0.07925,0.05267 0.118161,0.07932 0.08508,0.05805 0.170839,0.115384 0.263846,0.169956 0.02728,0.01604 0.05706,0.03121 0.08498,0.04694 0.108055,0.06079 0.218543,0.120003 0.335865,0.176433 0.544046,0.262109 1.182301,0.478835 1.883298,0.652314 1.460029,0.36133 3.177246,0.545241 4.816281,0.629653 0.941336,0.04849 1.671682,0.02125 2.498382,0.0186 -1.933175,-0.14064 -4.282189,-0.429897 -6.307867,-1.073969 -1.22283,-0.38881 -1.845136,-0.939174 -2.512143,-1.612986 -0.588901,-0.594929 -1.219552,-1.288099 -2.36079,-2.083197 h -0.0031 l -0.02427,-0.01701 C 81.89164,51.907401 81.743697,51.806464 81.583464,51.703936 h -0.001 c -0.171505,-0.109719 -0.35699,-0.212528 -0.548719,-0.311584 -0.0653,-0.03373 -0.131663,-0.06709 -0.199097,-0.09955 -0.002,-8.14e-4 -0.0046,-0.0014 -0.0065,-0.0027 -0.921794,-0.443701 -2.045648,-0.767412 -3.302849,-1.00437 -0.270858,-0.05087 -0.55143,-0.09487 -0.83441,-0.137586 -0.08958,-0.01361 -0.178783,-0.02763 -0.26951,-0.04044 -0.306923,-0.04313 -0.618168,-0.08341 -0.937198,-0.118156 -0.711348,-0.07748 -1.451083,-0.135159 -2.211066,-0.177243 -0.261204,-0.01469 -0.526347,-0.02573 -0.791521,-0.03722 -0.329117,-0.01358 -0.65917,-0.02686 -0.993854,-0.03562 -0.892517,-0.02573 -1.802357,-0.03479 -2.720136,-0.03236 -0.131449,5.6e-4 -0.261657,-8.14e-4 -0.393325,0 z m 9.52088,0.365006 c -0.05295,0.01228 -0.106208,0.02435 -0.159434,0.03642 0.01532,0.0031 0.03084,0.0059 0.04616,0.0089 0.03873,-0.01463 0.07466,-0.03068 0.113297,-0.04532 z M 64.47209,51.004514 c -0.771465,-8.14e-4 -1.40461,0.0081 -1.846072,0.01782 -0.0015,3.5e-5 -0.0051,-3.3e-5 -0.0065,0 -0.432317,0.0096 -0.680727,0.01992 -0.687923,0.02025 -0.0062,0.0031 -0.148299,0.07388 -0.220955,0.110065 -0.07474,0.03876 -0.149582,0.07645 -0.286491,0.14406 1.154479,0.564614 1.647579,1.176489 1.731945,1.289255 0.0041,0.0052 0.02127,0.02289 0.02346,0.02589 2.7e-4,-3.2e-5 0.01796,-0.0021 0.01863,-0.0021 0.02962,-0.0036 0.313153,-0.03226 0.711389,-0.0696 0.187774,-0.01809 0.266023,-0.02503 0.534962,-0.04694 0.135785,-0.01112 0.26242,-0.02019 0.416801,-0.03156 0.305377,-0.02255 0.63546,-0.0427 1.003564,-0.06313 0.185276,-0.01026 0.353051,-0.01936 0.55196,-0.02833 0.461162,-0.0209 0.951957,-0.03465 1.469734,-0.04371 0.103892,-0.0019 0.190472,-0.0077 0.296206,-0.0089 0.02428,-2.53e-4 0.05008,2.54e-4 0.07446,0 0.100543,-8.14e-4 0.202364,2.7e-4 0.304303,0 0.443182,-0.0019 0.89615,0.0036 1.35724,0.01617 0.109053,0.0031 0.214869,0.004 0.324537,0.0081 0.134147,0.0047 0.268293,0.01163 0.403045,0.01782 0.197658,0.0092 0.394959,0.01979 0.593227,0.0324 0.168039,0.01055 0.334812,0.02241 0.502591,0.03563 0.164732,0.01304 0.328074,0.02877 0.492073,0.04451 0.180253,0.01725 0.35959,0.03435 0.538199,0.05503 0.168966,0.01963 0.334832,0.04345 0.501777,0.06637 1.250295,0.17167 2.43737,0.433333 3.425062,0.836838 1.244254,0.508322 2.141824,1.191359 2.670767,1.944803 0.528942,0.753449 0.685541,1.581877 0.438653,2.351898 -0.114004,0.355552 -0.349906,0.989716 -0.697638,1.590317 -0.347738,0.600606 -0.805073,1.173354 -1.388803,1.382327 -1.30971,0.468865 -2.115826,0.920495 -2.592254,1.251215 -0.146274,0.101521 -0.100132,0.0878 -0.188579,0.162675 0.646163,-0.231257 2.197972,-0.814053 3.85319,-1.867113 1.021417,-0.649836 1.962585,-1.430387 2.4911,-2.296858 0.52852,-0.866471 0.656167,-1.804784 0.06232,-2.837491 -0.479834,-0.83443 -1.200978,-1.523204 -2.124482,-2.10262 l -0.0031,-0.0019 -0.0081,-0.004 c -0.133683,-0.0836 -0.270847,-0.165542 -0.41194,-0.245227 -0.002,-8.15e-4 -0.0031,-0.0021 -0.0051,-0.0031 -0.144213,-0.08017 -0.291637,-0.158131 -0.444317,-0.233894 -0.172238,-0.04855 -0.350766,-0.0941 -0.527681,-0.140016 -0.106045,-0.02749 -0.208939,-0.0568 -0.316445,-0.08336 -0.286578,-0.07084 -0.577899,-0.138212 -0.872451,-0.202328 0,0 -0.001,0 -0.001,0 -0.589634,-0.12834 -1.192005,-0.243381 -1.793456,-0.344775 0,0 -10e-4,0 -10e-4,0 -0.115174,-0.01941 -0.233682,-0.03416 -0.349631,-0.0526 -0.347849,-0.05534 -0.696111,-0.110729 -1.048877,-0.157815 -10e-4,-1.03e-4 -0.002,9.9e-5 -0.002,0 -0.410648,-0.0548 -0.823317,-0.101961 -1.235837,-0.146488 -0.06107,-0.0066 -0.121877,-0.01547 -0.182915,-0.02184 -0.469615,-0.04908 -0.938613,-0.09216 -1.402554,-0.129492 -0.0041,-2.54e-4 -0.0075,-5.6e-4 -0.0113,-8.15e-4 -0.462144,-0.03713 -0.918822,-0.06859 -1.367755,-0.0955 -0.0055,-2.7e-4 -0.01064,-5.59e-4 -0.01618,-8.14e-4 -0.446862,-0.0267 -0.884868,-0.04914 -1.311104,-0.06717 -0.0073,-2.54e-4 -0.01379,-5.6e-4 -0.02102,-8.15e-4 -0.424037,-0.01782 -0.834848,-0.03143 -1.230982,-0.04208 -0.001,-2.7e-5 -0.0015,2.2e-5 -0.002,0 -0.803515,-0.02152 -1.542191,-0.02988 -2.184359,-0.03076 z m -3.287475,0.407897 c -0.341651,0.162753 -0.754859,0.350592 -1.175945,0.512303 l 0.336674,0.216087 c 0.01028,0.0019 1.647045,0.361715 2.645684,0.569762 -0.01481,-0.02006 -0.06018,-0.07454 -0.114116,-0.135154 -0.02733,-0.02957 -0.06696,-0.06694 -0.101979,-0.101977 -0.06089,-0.06192 -0.126737,-0.126801 -0.218512,-0.205563 -0.03262,-0.02789 -0.06741,-0.05659 -0.103593,-0.08579 -0.04173,-0.03359 -0.08388,-0.06742 -0.131113,-0.102781 -0.0402,-0.03028 -0.08637,-0.06196 -0.130304,-0.09307 -0.06364,-0.04468 -0.12661,-0.08886 -0.199093,-0.135159 -0.01822,-0.01175 -0.03954,-0.02381 -0.05827,-0.03563 -0.212645,-0.132506 -0.45878,-0.268864 -0.749434,-0.403046 z m 20.348013,0.02268 c 0.05314,0.03196 0.109516,0.06172 0.161058,0.09469 0.155708,0.09962 0.299351,0.196951 0.439462,0.29379 1.083782,0.06121 2.344566,0.191036 3.890416,0.4516 3.032907,0.51123 5.576388,0.580248 7.73066,0.53658 -2.081164,-0.01517 -4.316759,-0.161274 -5.989804,-0.781804 -2.69e-4,-6.8e-5 -0.0015,6.7e-5 -0.002,0 -1.719452,-0.273464 -3.820305,-0.434271 -6.230174,-0.594853 z m -13.107802,1.090963 c -0.139292,8.15e-4 -0.276893,0.0014 -0.41276,0.0031 -0.6197,0.0093 -1.21714,0.02833 -1.757848,0.05422 -0.04188,0.0021 -0.081,0.0044 -0.122208,0.0065 -0.36389,0.01825 -0.664081,0.03947 -0.975234,0.0607 -0.930761,0.06606 -1.61245,0.135648 -1.743278,0.150535 0.841606,0.178471 0.928989,0.177963 2.013591,0.4338 2.748441,0.648314 5.884614,1.490628 7.477339,2.297669 0.924273,0.46833 1.704918,0.964395 2.267728,1.523958 0.562804,0.559554 0.908323,1.188378 0.944481,1.903529 0.0116,0.228848 -0.104376,0.472374 -0.297835,0.728393 -0.193449,0.256012 -0.470521,0.524687 -0.805276,0.789898 -0.669506,0.530403 -1.573082,1.044285 -2.512138,1.37423 -1.45609,0.51161 -2.18758,0.959722 -2.549373,1.26983 -0.139913,0.119927 -0.190289,0.197893 -0.241179,0.271935 0.347844,-0.0842 2.7841,-0.683763 5.157826,-1.795083 1.273567,-0.596249 2.47083,-1.3259 3.192778,-2.152801 0.360974,-0.413452 0.602224,-0.848681 0.684687,-1.303819 0.08246,-0.455141 0.0089,-0.93266 -0.275983,-1.444645 -1.028989,-1.849521 -2.379161,-2.907994 -4.759625,-3.824865 -0.819724,-0.131159 -1.675636,-0.22211 -2.534804,-0.276788 -0.463187,-0.02949 -0.925118,-0.04638 -1.382325,-0.05827 -0.15119,-0.0035 -0.298802,-0.0052 -0.447559,-0.0073 -0.31129,-0.0047 -0.619338,-0.0067 -0.921005,-0.0048 z m 11.304631,0.497733 c 0.879851,0.389566 1.625906,0.821626 2.03949,1.343478 0.649669,0.819714 0.838655,1.643089 0.746198,2.402073 -0.09245,0.758978 -0.460256,1.451605 -0.904013,2.038688 -0.389432,0.51522 -0.826345,0.909113 -1.209125,1.235837 0.405528,-0.227131 0.864059,-0.490989 1.351561,-0.861927 1.137294,-0.865363 2.22241,-2.086239 2.157657,-3.52461 -0.587364,-0.288045 -1.076912,-0.632428 -1.411454,-1.054547 -0.48393,-0.610604 -1.543011,-1.122618 -2.770314,-1.578992 z"
         id="path3749-4"
         inkscape:connector-curvature="0" />
      <ellipse
         ry="2.2121527"
         rx="2.5281751"
         cy="50.993"
         cx="55.008854"
         style="fill:#ffffff;fill-opacity:1;fill-rule:evenodd;stroke:#ffffff;stroke-width:0.589507;stroke-miterlimit:4;stroke-dasharray:none;stroke-opacity:1"
         id="path2993" />
      <g
         id="g4571"
         style="fill:#786a39;fill-opacity:1;fill-rule:evenodd;stroke:none;stroke-width:1"
         transform="matrix(0.58950465,0,0,0.58950465,-35.9888,-41.515061)">
        <text
           id="text2985"
           y="148.54076"
           x="141.01489"
           style="font-style:normal;font-variant:normal;font-weight:normal;font-stretch:normal;line-height:0%;font-family:'League Gothic';-inkscape-font-specification:'League Gothic';letter-spacing:0px;word-spacing:0px;fill:#786a39;fill-opacity:1;stroke:none"
           xml:space="preserve"><tspan
             y="148.54076"
             x="141.01489"
             id="tspan2987"
             sodipodi:role="line"
             style="font-size:20px;line-height:1.25;fill:#786a39;fill-opacity:1">FLAX</tspan></text>
        <text
           id="text2989"
           y="180.39401"
           x="141.631"
           style="font-style:normal;font-variant:normal;font-weight:normal;font-stretch:normal;line-height:0%;font-family:'League Gothic';-inkscape-font-specification:'League Gothic';letter-spacing:0px;word-spacing:0px;fill:#786a39;fill-opacity:1;stroke:none"
           xml:space="preserve"><tspan
             y="180.39401"
             x="141.631"
             id="tspan2991"
             sodipodi:role="line"
             style="font-size:20px;line-height:1.25;fill:#786a39;fill-opacity:1">TEAL</tspan></text>
        <g
           style="fill:#786a39;fill-opacity:1"
           transform="translate(-1.3676344,2)"
           id="g4185">
          <path
             style="fill:#786a39;fill-opacity:1;stroke:none"
             d="m 169.73905,170.30052 c 5.62051,0.0817 11.20061,-0.36516 16.66794,-2.28729 l 0.18287,2.39213 -16.74494,1.28008 z"
             id="rect4072-7-9"
             inkscape:connector-curvature="0"
             sodipodi:nodetypes="ccccc" />
          <path
             style="fill:#786a39;fill-opacity:1;stroke:none"
             d="m 141.72223,170.40079 c -5.62104,0.0267 -11.19651,-0.4746 -16.64479,-2.45007 l -0.20624,2.39023 16.73163,1.44366 z"
             id="rect4072-7-9-7"
             inkscape:connector-curvature="0"
             sodipodi:nodetypes="ccccc" />
        </g>
        <g
           style="fill:#786a39;fill-opacity:1"
           transform="translate(-0.94563944)"
           id="g4181">
          <path
             style="fill:#786a39;fill-opacity:1;stroke:none"
             d="m 169.31542,141.92843 c 5.62019,-0.1014 11.20182,0.32585 16.67586,2.22878 l 0.17447,-2.39276 -16.74932,-1.22131 z"
             id="rect4072-7-9-9"
             inkscape:connector-curvature="0"
             sodipodi:nodetypes="ccccc" />
          <path
             style="fill:#786a39;fill-opacity:1;stroke:none"
             d="m 141.30244,141.83646 c -5.62085,-0.052 -11.19853,0.42419 -16.65565,2.37511 l -0.19547,-2.39114 16.73796,-1.36831 z"
             id="rect4072-7-9-7-9"
             inkscape:connector-curvature="0"
             sodipodi:nodetypes="ccccc" />
        </g>
      </g>
      <text
         xml:space="preserve"
         style="font-size:6.3459px;fill:#786a39;fill-opacity:1;stroke:#786a39;stroke-width:0.356231;stroke-dasharray:none;stroke-opacity:1"
         x="55.845921"
         y="50.759064"
         id="text1"
         transform="scale(0.95016065,1.0524536)"><tspan
           sodipodi:role="line"
           id="tspan1"
           style="font-style:normal;font-variant:normal;font-weight:normal;font-stretch:normal;font-size:6.3459px;font-family:'Fira Mono';-inkscape-font-specification:'Fira Mono';fill:#786a39;fill-opacity:1;stroke:#786a39;stroke-width:0.356231;stroke-dasharray:none;stroke-opacity:1"
           x="55.845921"
           y="50.759064">&amp;</tspan></text>
    </g>
  </g>
</svg>
