<svg xmlns="http://www.w3.org/2000/svg" width="500" height="300" viewBox="0 0 500 300">
  <style>
    text { font-family: 'Helvetica Neue', Arial, sans-serif; font-size: 12px; }
  </style>
  <rect x="0" y="0" width="500" height="300" fill="#fff" stroke="#e5e7eb" />
  <polyline points="40,20 40,260 480,260" fill="none" stroke="#374151" stroke-width="1.2" />
  <polyline points="40.0,256.6 70.0,230.3 100.0,184.3 130.0,129.9 160.0,80.4 190.0,48.0 220.0,40.8 250.0,60.4 280.0,102.0 310.0,155.5 340.0,207.6 370.0,245.6 400.0,260.0 430.0,247.3 460.0,210.7" fill="none" stroke="#0b6e4f" stroke-width="2" />
  <g fill="#0b6e4f">
    <circle cx="40.0" cy="256.6" r="3" /><circle cx="70.0" cy="230.3" r="3" /><circle cx="100.0" cy="184.3" r="3" /><circle cx="130.0" cy="129.9" r="3" /><circle cx="160.0" cy="80.4" r="3" /><circle cx="190.0" cy="48.0" r="3" /><circle cx="220.0" cy="40.8" r="3" /><circle cx="250.0" cy="60.4" r="3" /><circle cx="280.0" cy="102.0" r="3" /><circle cx="310.0" cy="155.5" r="3" /><circle cx="340.0" cy="207.6" r="3" /><circle cx="370.0" cy="245.6" r="3" /><circle cx="400.0" cy="260.0" r="3" /><circle cx="430.0" cy="247.3" r="3" /><circle cx="460.0" cy="210.7" r="3" />
  </g>
  <line x1="220" y1="40" x2="220" y2="260" stroke="#c54f1f" stroke-dasharray="6 4" stroke-width="1.5" />
  <text x="250" y="18" text-anchor="middle" font-size="14" font-weight="600">Grover amplitude amplification for N=64, M=1</text>
  <text x="250" y="290" text-anchor="middle">Iterations k</text>
  <text x="12" y="40" text-anchor="start" transform="rotate(-90 12 40)">Success probability</text>
  <text x="226" y="54" fill="#c54f1f">Approx. optimum</text>
</svg>